# xmcd CD database file
#
# Track frame offsets:
#	150
#	18867
#	34787
#	54022
#	64966
#	84017
#	106944
#	123620
#	142311
#	164018
#	186574
#	200571
#	214840
#	233419
#
# Disc length: 3332 seconds
#
# Revision: 0
# Processed by: cddbd v1.5.1PL0 Copyright (c) Steve Scherf et al.
# Submitted via: CDex 1.51
#
DISCID=c40d020e
DTITLE=SUSAN - COMPLETE SUSAN -Disk2-
DYEAR=2005
DGENRE=Synthpop
TTITLE0=YOU'RE MY NUMBER ONE
TTITLE1=恋せよ乙女
TTITLE2=TRAINING
TTITLE3=”BLOW-UP”
TTITLE4=I NEED YOUR LOVE
TTITLE5=I ONLY COME OUT AT NIGHT
TTITLE6=GO GO
TTITLE7=NUIT DE SAINT-GERMAIN
TTITLE8=TOKYO SUE
TTITLE9=MY LOVE
TTITLE10=モダン・ワールド
TTITLE11=サマルカンド大通り
TTITLE12=シャボン・ドール
TTITLE13=恋はダンス
EXTD=YEAR: 2005
EXTT0=
EXTT1=
EXTT2=
EXTT3=
EXTT4=
EXTT5=
EXTT6=
EXTT7=
EXTT8=
EXTT9=
EXTT10=
EXTT11=
EXTT12=
EXTT13=
PLAYORDER=
